<svg width="47" height="47" viewBox="0 0 47 47" fill="none" xmlns="http://www.w3.org/2000/svg">
<path d="M23.5 43.0833C34.3155 43.0833 43.0833 34.3156 43.0833 23.5C43.0833 12.6844 34.3155 3.91666 23.5 3.91666C12.6844 3.91666 3.91663 12.6844 3.91663 23.5C3.91663 34.3156 12.6844 43.0833 23.5 43.0833Z" fill="#D9D9D9"/>
<path d="M23.5 31.3333L31.3333 23.5L23.5 15.6667" fill="#D9D9D9"/>
<path d="M23.5 31.3333L31.3333 23.5M31.3333 23.5L23.5 15.6667M31.3333 23.5H15.6666M43.0833 23.5C43.0833 34.3156 34.3155 43.0833 23.5 43.0833C12.6844 43.0833 3.91663 34.3156 3.91663 23.5C3.91663 12.6844 12.6844 3.91666 23.5 3.91666C34.3155 3.91666 43.0833 12.6844 43.0833 23.5Z" stroke="#1E1E1E" stroke-width="4" stroke-linecap="round" stroke-linejoin="round"/>
</svg>
