<svg width="46" height="46" viewBox="0 0 46 46" fill="none" xmlns="http://www.w3.org/2000/svg">
<path fill-rule="evenodd" clip-rule="evenodd" d="M46.3567 17.9594L41.6384 20.6829C41.8841 22.4012 41.8841 24.1458 41.6384 25.8642L46.3567 28.5897L39.6103 40.2746L34.8898 37.549C33.527 38.6239 32.017 39.4978 30.406 40.1438V45.5887H16.9131V40.1438C15.3007 39.4981 13.7893 38.6243 12.4252 37.549L7.70471 40.2746L0.958252 28.5877L5.6787 25.8642C5.433 24.1458 5.433 22.4012 5.6787 20.6829L0.958252 17.9594L7.70471 6.27245L12.4272 9.00009C13.7907 7.92501 15.3014 7.05117 16.9131 6.4053V0.958313H30.406V6.4053C32.0314 7.05504 33.5405 7.93311 34.8919 9.00009L39.6123 6.27452L46.3588 17.9594H46.3567ZM23.6575 30.5389C24.6116 30.5389 25.5564 30.351 26.4378 29.9859C27.3193 29.6208 28.1203 29.0856 28.7949 28.4109C29.4696 27.7363 30.0047 26.9354 30.3699 26.0539C30.735 25.1724 30.9229 24.2276 30.9229 23.2735C30.9229 22.3194 30.735 21.3746 30.3699 20.4932C30.0047 19.6117 29.4696 18.8108 28.7949 18.1361C28.1203 17.4614 27.3193 16.9263 26.4378 16.5612C25.5564 16.196 24.6116 16.0081 23.6575 16.0081C21.7306 16.0081 19.8826 16.7736 18.5201 18.1361C17.1575 19.4986 16.3921 21.3466 16.3921 23.2735C16.3921 25.2004 17.1575 27.0484 18.5201 28.4109C19.8826 29.7735 21.7306 30.5389 23.6575 30.5389Z" fill="white"/>
</svg>
