<svg width="25" height="25" viewBox="0 0 25 25" fill="none" xmlns="http://www.w3.org/2000/svg">
<g clip-path="url(#clip0_26_11)">
<path d="M10.1829 13.5389V17.2389C10.1834 17.4274 10.2372 17.6119 10.338 17.7711C10.4389 17.9304 10.5827 18.0579 10.7529 18.1389C10.9153 18.2092 11.0934 18.2351 11.2691 18.214C11.4448 18.1929 11.6117 18.1256 11.7529 18.0189L18.2529 12.8189C18.3799 12.731 18.4849 12.6148 18.5595 12.4794C18.6341 12.3441 18.6763 12.1933 18.6829 12.0389C18.6822 11.8887 18.6476 11.7406 18.5819 11.6056C18.5161 11.4705 18.4207 11.352 18.3029 11.2589L11.8029 6.03891C11.6617 5.93223 11.4948 5.86491 11.3191 5.84382C11.1434 5.82274 10.9653 5.84865 10.8029 5.91891C10.6327 5.99996 10.4889 6.12745 10.388 6.28669C10.2872 6.44593 10.2334 6.63042 10.2329 6.81891V10.5189H1.68286C1.28504 10.5189 0.903506 10.6769 0.622201 10.9583C0.340897 11.2396 0.182861 11.6211 0.182861 12.0189C0.182861 12.4167 0.340897 12.7983 0.622201 13.0796C0.903506 13.3609 1.28504 13.5189 1.68286 13.5189L10.1829 13.5389Z" fill="white"/>
<path d="M12.1829 0.0389099C9.86832 0.0388166 7.60314 0.708079 5.66031 1.96604C3.71747 3.22401 2.17989 5.01699 1.23286 7.12891C1.17772 7.24897 1.14692 7.37877 1.14223 7.5108C1.13755 7.64284 1.15907 7.77449 1.20556 7.89816C1.25205 8.02182 1.32259 8.13505 1.41309 8.2313C1.5036 8.32755 1.61228 8.40491 1.73286 8.45891C1.853 8.51218 1.98247 8.54124 2.11386 8.54444C2.24525 8.54763 2.37598 8.5249 2.49857 8.47753C2.62117 8.43017 2.73322 8.3591 2.82833 8.26839C2.92344 8.17769 2.99974 8.06912 3.05286 7.94891C3.9938 5.86487 5.62054 4.16625 7.66197 3.13614C9.7034 2.10603 12.0362 1.80665 14.2716 2.28789C16.507 2.76914 18.5099 4.00195 19.9466 5.78085C21.3833 7.55976 22.167 9.7773 22.167 12.0639C22.167 14.3505 21.3833 16.5681 19.9466 18.347C18.5099 20.1259 16.507 21.3587 14.2716 21.8399C12.0362 22.3212 9.7034 22.0218 7.66197 20.9917C5.62054 19.9616 3.9938 18.2629 3.05286 16.1789C2.92784 15.9591 2.7242 15.7949 2.48293 15.7192C2.24167 15.6435 1.98069 15.662 1.75254 15.771C1.52439 15.88 1.346 16.0714 1.25329 16.3067C1.16058 16.5419 1.16042 16.8036 1.25286 17.0389C2.15006 18.9964 3.55744 20.6763 5.32739 21.9027C7.09735 23.129 9.16467 23.8565 11.3126 24.0088C13.4604 24.1612 15.6097 23.7328 17.5351 22.7685C19.4604 21.8043 21.0908 20.3398 22.2553 18.5286C23.4198 16.7174 24.0755 14.6262 24.1537 12.4743C24.2318 10.3224 23.7295 8.1892 22.6994 6.2983C21.6693 4.40739 20.1494 2.82849 18.299 1.72718C16.4487 0.625874 14.3361 0.0427314 12.1829 0.0389099Z" fill="white"/>
</g>
<defs>
<clipPath id="clip0_26_11">
<rect width="24" height="24" fill="white" transform="translate(0.182861 0.0389099)"/>
</clipPath>
</defs>
</svg>
