<svg width="35" height="35" viewBox="0 0 35 35" fill="none" xmlns="http://www.w3.org/2000/svg">
<g clip-path="url(#clip0_1_84)">
<path d="M33.5416 5.83333V14.5833H24.7916" fill="#202020"/>
<path d="M1.45825 29.1667V20.4167H10.2083" fill="#202020"/>
<path d="M5.11867 13.125C5.85829 11.0349 7.11532 9.16621 8.77248 7.69332C10.4296 6.22042 12.4329 5.19132 14.5953 4.70204C16.7578 4.21276 19.0089 4.27925 21.1387 4.89529C23.2685 5.51134 25.2076 6.65687 26.7749 8.225L33.5416 14.5833M1.45825 20.4167L8.22492 26.775C9.79226 28.3431 11.7313 29.4887 13.8611 30.1047C15.9909 30.7208 18.2421 30.7872 20.4045 30.298C22.5669 29.8087 24.5702 28.7796 26.2274 27.3067C27.8845 25.8338 29.1416 23.9651 29.8812 21.875" fill="#202020"/>
<path d="M33.5416 5.83333V14.5833M33.5416 14.5833H24.7916M33.5416 14.5833L26.7749 8.225C25.2076 6.65687 23.2685 5.51134 21.1387 4.89529C19.0089 4.27925 16.7578 4.21276 14.5953 4.70204C12.4329 5.19132 10.4296 6.22042 8.77248 7.69332C7.11532 9.16621 5.85829 11.0349 5.11867 13.125M1.45825 29.1667V20.4167M1.45825 20.4167H10.2083M1.45825 20.4167L8.22492 26.775C9.79226 28.3431 11.7313 29.4887 13.8611 30.1047C15.9909 30.7208 18.2421 30.7872 20.4045 30.298C22.567 29.8087 24.5702 28.7796 26.2274 27.3067C27.8845 25.8338 29.1416 23.9651 29.8812 21.875" stroke="#B3B3B3" stroke-width="4" stroke-linecap="round" stroke-linejoin="round"/>
</g>
<defs>
<clipPath id="clip0_1_84">
<rect width="35" height="35" fill="white"/>
</clipPath>
</defs>
</svg>
