<svg width="24" height="24" viewBox="0 0 24 24" fill="none" xmlns="http://www.w3.org/2000/svg">
<path d="M14.2999 12.18C14.276 12.1576 14.257 12.1305 14.2439 12.1004C14.2309 12.0703 14.2242 12.0378 14.2242 12.005C14.2242 11.9722 14.2309 11.9398 14.2439 11.9097C14.257 11.8796 14.276 11.8525 14.2999 11.83L23.5599 2.56003C23.7002 2.42144 23.8116 2.25638 23.8876 2.07442C23.9636 1.89246 24.0028 1.69723 24.0028 1.50003C24.0028 1.30283 23.9636 1.10759 23.8876 0.925629C23.8116 0.743671 23.7002 0.578613 23.5599 0.440025C23.2774 0.161545 22.8966 0.00543213 22.4999 0.00543213C22.1032 0.00543213 21.7225 0.161545 21.4399 0.440025L12.1799 9.70002C12.1566 9.72422 12.1287 9.74347 12.0977 9.75661C12.0668 9.76976 12.0335 9.77653 11.9999 9.77653C11.9663 9.77653 11.9331 9.76976 11.9021 9.75661C11.8712 9.74347 11.8433 9.72422 11.8199 9.70002L2.55993 0.440025C2.2774 0.161545 1.89663 0.00543213 1.49993 0.00543213C1.10323 0.00543213 0.722459 0.161545 0.439931 0.440025C0.299641 0.578613 0.188257 0.743671 0.112236 0.925629C0.0362155 1.10759 -0.00292969 1.30283 -0.00292969 1.50003C-0.00292969 1.69723 0.0362155 1.89246 0.112236 2.07442C0.188257 2.25638 0.299641 2.42144 0.439931 2.56003L9.69993 11.83C9.72385 11.8525 9.74291 11.8796 9.75594 11.9097C9.76897 11.9398 9.77569 11.9722 9.77569 12.005C9.77569 12.0378 9.76897 12.0703 9.75594 12.1004C9.74291 12.1305 9.72385 12.1576 9.69993 12.18L0.439931 21.44C0.299641 21.5786 0.188257 21.7437 0.112236 21.9256C0.0362155 22.1076 -0.00292969 22.3028 -0.00292969 22.5C-0.00292969 22.6972 0.0362155 22.8925 0.112236 23.0744C0.188257 23.2564 0.299641 23.4214 0.439931 23.56C0.722459 23.8385 1.10323 23.9946 1.49993 23.9946C1.89663 23.9946 2.2774 23.8385 2.55993 23.56L11.8199 14.3C11.8433 14.2758 11.8712 14.2566 11.9021 14.2434C11.9331 14.2303 11.9663 14.2235 11.9999 14.2235C12.0335 14.2235 12.0668 14.2303 12.0977 14.2434C12.1287 14.2566 12.1566 14.2758 12.1799 14.3L21.4399 23.56C21.7225 23.8385 22.1032 23.9946 22.4999 23.9946C22.8966 23.9946 23.2774 23.8385 23.5599 23.56C23.7002 23.4214 23.8116 23.2564 23.8876 23.0744C23.9636 22.8925 24.0028 22.6972 24.0028 22.5C24.0028 22.3028 23.9636 22.1076 23.8876 21.9256C23.8116 21.7437 23.7002 21.5786 23.5599 21.44L14.2999 12.18Z" fill="white"/>
</svg>
